<svg width="96" height="64" viewBox="0 0 96 64" fill="none" xmlns="http://www.w3.org/2000/svg">
<rect opacity="0.05" width="96" height="64" rx="8" fill="#E0E0E0"/>
<g clip-path="url(#clip0_247_3516)">
<path d="M67.4017 36.8365C64.7295 47.5565 53.8684 54.0731 43.1637 51.4008C32.4434 48.7286 25.9269 37.8679 28.5992 27.1634C31.2714 16.4434 42.1167 9.92685 52.837 12.5992C63.5417 15.2558 70.074 26.1164 67.4017 36.8365Z" fill="#E0E0E0"/>
<path d="M57.5234 29.5083C57.9141 26.8521 55.8984 25.4146 53.1172 24.4614L54.0234 20.8521L51.8359 20.3052L50.9609 23.8208C50.3828 23.6802 49.7891 23.5396 49.1953 23.4146L50.0703 19.8833L47.8828 19.3364L46.9922 22.9302C46.5078 22.8208 46.0391 22.7114 45.5859 22.6021V22.5864L42.5547 21.8364L41.9766 24.1802C41.9766 24.1802 43.6016 24.5552 43.5703 24.5708C44.4609 24.7896 44.6172 25.3833 44.5859 25.8521L43.5547 29.9614C43.6172 29.9771 43.6953 29.9927 43.7891 30.0396C43.7109 30.0239 43.6328 30.0083 43.5547 29.9771L42.1172 35.7271C42.0078 35.9927 41.7266 36.3989 41.1172 36.2427C41.1328 36.2739 39.5234 35.8521 39.5234 35.8521L38.4297 38.3677L41.2891 39.0864C41.8203 39.2271 42.3359 39.3521 42.8516 39.4927L41.9453 43.1333L44.1328 43.6802L45.0391 40.0708C45.6328 40.2271 46.2266 40.3833 46.7891 40.5239L45.8984 44.1177L48.0859 44.6646L48.9922 41.0239C52.7422 41.7271 55.5547 41.4458 56.7266 38.0552C57.6797 35.3364 56.6797 33.7583 54.7109 32.7271C56.1641 32.3989 57.2422 31.4458 57.5234 29.5083ZM52.5078 36.5396C51.8359 39.2583 47.2422 37.7896 45.7578 37.4146L46.9609 32.5864C48.4453 32.9614 53.2266 33.6958 52.5078 36.5396ZM53.1953 29.4614C52.5703 31.9458 48.7578 30.6802 47.5234 30.3677L48.6172 25.9927C49.8516 26.3052 53.8359 26.8833 53.1953 29.4614Z" fill="#0D0D2B"/>
</g>
<defs>
<clipPath id="clip0_247_3516">
<rect width="40" height="40" fill="white" transform="translate(28 12)"/>
</clipPath>
</defs>
</svg>
