<svg width="32" height="32" viewBox="0 0 32 32" fill="none" xmlns="http://www.w3.org/2000/svg">
<rect width="32" height="32" rx="16" fill="white"/>
<path d="M6.65 19.7167C7.02778 19.4167 7.2 19.2778 7.16667 19.3C8.25556 18.4 9.11111 17.6611 9.73333 17.0833C10.3667 16.5056 10.9 15.9 11.3333 15.2667C11.7667 14.6333 11.9833 14.0167 11.9833 13.4167C11.9833 12.9611 11.8778 12.6056 11.6667 12.35C11.4556 12.0944 11.1389 11.9667 10.7167 11.9667C10.2944 11.9667 9.96111 12.1278 9.71667 12.45C9.48333 12.7611 9.36667 13.2056 9.36667 13.7833H6.61667C6.63889 12.8389 6.83889 12.05 7.21667 11.4167C7.60556 10.7833 8.11111 10.3167 8.73333 10.0167C9.36667 9.71667 10.0667 9.56667 10.8333 9.56667C12.1556 9.56667 13.15 9.90556 13.8167 10.5833C14.4944 11.2611 14.8333 12.1444 14.8333 13.2333C14.8333 14.4222 14.4278 15.5278 13.6167 16.55C12.8056 17.5611 11.7722 18.55 10.5167 19.5167H15.0167V21.8333H6.65V19.7167ZM16.3715 13.2667C16.4159 12.0778 16.8048 11.1611 17.5382 10.5167C18.2715 9.87222 19.2659 9.55 20.5215 9.55C21.3548 9.55 22.0659 9.69444 22.6548 9.98333C23.2548 10.2722 23.7048 10.6667 24.0048 11.1667C24.3159 11.6667 24.4715 12.2278 24.4715 12.85C24.4715 13.5833 24.2882 14.1833 23.9215 14.65C23.5548 15.1056 23.127 15.4167 22.6382 15.5833V15.65C23.2715 15.8611 23.7715 16.2111 24.1382 16.7C24.5048 17.1889 24.6882 17.8167 24.6882 18.5833C24.6882 19.2722 24.527 19.8833 24.2048 20.4167C23.8937 20.9389 23.4326 21.35 22.8215 21.65C22.2215 21.95 21.5048 22.1 20.6715 22.1C19.3382 22.1 18.2715 21.7722 17.4715 21.1167C16.6826 20.4611 16.2659 19.4722 16.2215 18.15H18.9882C18.9993 18.6389 19.1382 19.0278 19.4048 19.3167C19.6715 19.5944 20.0604 19.7333 20.5715 19.7333C21.0048 19.7333 21.3382 19.6111 21.5715 19.3667C21.8159 19.1111 21.9382 18.7778 21.9382 18.3667C21.9382 17.8333 21.7659 17.45 21.4215 17.2167C21.0882 16.9722 20.5493 16.85 19.8048 16.85H19.2715V14.5333H19.8048C20.3715 14.5333 20.827 14.4389 21.1715 14.25C21.527 14.05 21.7048 13.7 21.7048 13.2C21.7048 12.8 21.5937 12.4889 21.3715 12.2667C21.1493 12.0444 20.8437 11.9333 20.4548 11.9333C20.0326 11.9333 19.7159 12.0611 19.5048 12.3167C19.3048 12.5722 19.1882 12.8889 19.1548 13.2667H16.3715Z" fill="black"/>
</svg>
