<svg width="84" height="19" viewBox="0 0 84 19" fill="none" xmlns="http://www.w3.org/2000/svg">
<path d="M24.672 1.152L20.28 18H15.312L12.624 6.912L9.84 18H4.872L0.6 1.152H4.992L7.416 13.416L10.416 1.152H14.928L17.808 13.416L20.256 1.152H24.672ZM39.3542 11.088C39.3542 11.472 39.3302 11.872 39.2822 12.288H29.9942C30.0582 13.12 30.3222 13.76 30.7862 14.208C31.2662 14.64 31.8502 14.856 32.5382 14.856C33.5622 14.856 34.2742 14.424 34.6742 13.56H39.0422C38.8182 14.44 38.4102 15.232 37.8182 15.936C37.2422 16.64 36.5142 17.192 35.6342 17.592C34.7542 17.992 33.7702 18.192 32.6822 18.192C31.3702 18.192 30.2022 17.912 29.1782 17.352C28.1542 16.792 27.3542 15.992 26.7782 14.952C26.2022 13.912 25.9142 12.696 25.9142 11.304C25.9142 9.912 26.1942 8.696 26.7542 7.656C27.3302 6.616 28.1302 5.816 29.1542 5.256C30.1782 4.696 31.3542 4.416 32.6822 4.416C33.9782 4.416 35.1302 4.688 36.1382 5.232C37.1462 5.776 37.9302 6.552 38.4902 7.56C39.0662 8.568 39.3542 9.744 39.3542 11.088ZM35.1542 10.008C35.1542 9.304 34.9142 8.744 34.4342 8.328C33.9542 7.912 33.3542 7.704 32.6342 7.704C31.9462 7.704 31.3622 7.904 30.8822 8.304C30.4182 8.704 30.1302 9.272 30.0182 10.008H35.1542ZM45.6233 6.504C46.0073 5.88 46.5593 5.376 47.2793 4.992C47.9993 4.608 48.8233 4.416 49.7513 4.416C50.8553 4.416 51.8553 4.696 52.7513 5.256C53.6473 5.816 54.3513 6.616 54.8633 7.656C55.3913 8.696 55.6553 9.904 55.6553 11.28C55.6553 12.656 55.3913 13.872 54.8633 14.928C54.3513 15.968 53.6473 16.776 52.7513 17.352C51.8553 17.912 50.8553 18.192 49.7513 18.192C48.8073 18.192 47.9833 18.008 47.2793 17.64C46.5753 17.256 46.0233 16.752 45.6233 16.128V18H41.5193V0.24H45.6233V6.504ZM51.4793 11.28C51.4793 10.256 51.1913 9.456 50.6153 8.88C50.0553 8.288 49.3593 7.992 48.5273 7.992C47.7113 7.992 47.0153 8.288 46.4393 8.88C45.8793 9.472 45.5993 10.28 45.5993 11.304C45.5993 12.328 45.8793 13.136 46.4393 13.728C47.0153 14.32 47.7113 14.616 48.5273 14.616C49.3433 14.616 50.0393 14.32 50.6153 13.728C51.1913 13.12 51.4793 12.304 51.4793 11.28ZM57.2563 14.712C57.8003 14.28 58.0483 14.08 58.0003 14.112C59.5683 12.816 60.8003 11.752 61.6963 10.92C62.6083 10.088 63.3763 9.216 64.0003 8.304C64.6243 7.392 64.9363 6.504 64.9363 5.64C64.9363 4.984 64.7843 4.472 64.4803 4.104C64.1763 3.736 63.7203 3.552 63.1123 3.552C62.5043 3.552 62.0243 3.784 61.6723 4.248C61.3363 4.696 61.1683 5.336 61.1683 6.168H57.2083C57.2403 4.808 57.5283 3.672 58.0723 2.76C58.6323 1.848 59.3603 1.176 60.2563 0.743999C61.1683 0.311999 62.1763 0.0959988 63.2803 0.0959988C65.1843 0.0959988 66.6163 0.583999 67.5763 1.56C68.5523 2.536 69.0403 3.808 69.0403 5.376C69.0403 7.088 68.4563 8.68 67.2883 10.152C66.1203 11.608 64.6323 13.032 62.8243 14.424H69.3043V17.76H57.2563V14.712ZM71.2553 5.424C71.3193 3.712 71.8793 2.392 72.9353 1.464C73.9913 0.535999 75.4233 0.0719991 77.2313 0.0719991C78.4313 0.0719991 79.4553 0.279999 80.3033 0.696C81.1673 1.112 81.8153 1.68 82.2473 2.4C82.6953 3.12 82.9193 3.928 82.9193 4.824C82.9193 5.88 82.6553 6.744 82.1273 7.416C81.5993 8.072 80.9833 8.52 80.2793 8.76V8.856C81.1913 9.16 81.9113 9.664 82.4393 10.368C82.9673 11.072 83.2313 11.976 83.2313 13.08C83.2313 14.072 82.9993 14.952 82.5353 15.72C82.0873 16.472 81.4233 17.064 80.5433 17.496C79.6793 17.928 78.6473 18.144 77.4473 18.144C75.5273 18.144 73.9913 17.672 72.8393 16.728C71.7033 15.784 71.1033 14.36 71.0393 12.456H75.0233C75.0393 13.16 75.2393 13.72 75.6233 14.136C76.0073 14.536 76.5673 14.736 77.3033 14.736C77.9273 14.736 78.4073 14.56 78.7433 14.208C79.0953 13.84 79.2713 13.36 79.2713 12.768C79.2713 12 79.0233 11.448 78.5273 11.112C78.0473 10.76 77.2713 10.584 76.1992 10.584H75.4313V7.248H76.1992C77.0153 7.248 77.6713 7.112 78.1673 6.84C78.6793 6.552 78.9353 6.048 78.9353 5.328C78.9353 4.752 78.7753 4.304 78.4553 3.984C78.1353 3.664 77.6953 3.504 77.1353 3.504C76.5273 3.504 76.0713 3.688 75.7673 4.056C75.4793 4.424 75.3113 4.88 75.2633 5.424H71.2553Z" fill="white"/>
</svg>
