<svg width="68" height="68" viewBox="0 0 68 68" fill="none" xmlns="http://www.w3.org/2000/svg">
<path d="M8.5 8.5H59.5V59.5H8.5V8.5ZM21.9017 51.1133C23.035 53.5217 25.2733 55.505 29.0983 55.505C33.3483 55.505 36.2667 53.2383 36.2667 48.28V31.9033H31.45V48.1667C31.45 50.6033 30.4583 51.2267 28.9 51.2267C27.2567 51.2267 26.5767 50.0933 25.8117 48.7617L21.9017 51.1133ZM38.845 50.6033C40.2617 53.38 43.1233 55.505 47.6 55.505C52.1333 55.505 55.5333 53.1533 55.5333 48.8183C55.5333 44.8233 53.2383 43.0383 49.1583 41.2817L47.9683 40.7717C45.9 39.8933 45.0217 39.2983 45.0217 37.8817C45.0217 36.72 45.9 35.8133 47.3167 35.8133C48.6767 35.8133 49.5833 36.4083 50.405 37.8817L54.1167 35.4167C52.5583 32.6967 50.3483 31.6483 47.3167 31.6483C43.0383 31.6483 40.29 34.3683 40.29 37.9667C40.29 41.8767 42.585 43.7183 46.0417 45.1917L47.2317 45.7017C49.4417 46.665 50.745 47.26 50.745 48.9033C50.745 50.2633 49.47 51.255 47.4867 51.255C45.135 51.255 43.775 50.0367 42.755 48.3367L38.845 50.6033Z" fill="#B9B9B9"/>
</svg>
