<svg width="172" height="86" viewBox="0 0 172 86" fill="none" xmlns="http://www.w3.org/2000/svg">
<path d="M51.2758 17.5614C51.2758 17.0227 51.4898 16.5061 51.8707 16.1252C52.2515 15.7443 52.7681 15.5303 53.3068 15.5303C53.8455 15.5303 54.3621 15.7443 54.743 16.1252C55.1239 16.5061 55.3378 17.0227 55.3378 17.5614C55.3378 18.1 55.1239 18.6166 54.743 18.9975C54.3621 19.3784 53.8455 19.5924 53.3068 19.5924C52.7681 19.5924 52.2515 19.3784 51.8707 18.9975C51.4898 18.6166 51.2758 18.1 51.2758 17.5614ZM27.0453 35.951C27.0453 35.4124 27.2593 34.8958 27.6402 34.5149C28.021 34.134 28.5376 33.92 29.0763 33.92C29.615 33.92 30.1316 34.134 30.5125 34.5149C30.8934 34.8958 31.1073 35.4124 31.1073 35.951C31.1073 36.4897 30.8934 37.0063 30.5125 37.3872C30.1316 37.7681 29.615 37.9821 29.0763 37.9821C28.5376 37.9821 28.021 37.7681 27.6402 37.3872C27.2593 37.0063 27.0453 36.4897 27.0453 35.951ZM75.4919 36.0456C75.4919 35.507 75.7059 34.9904 76.0868 34.6095C76.4677 34.2286 76.9843 34.0146 77.523 34.0146C78.0616 34.0146 78.5782 34.2286 78.9591 34.6095C79.34 34.9904 79.554 35.507 79.554 36.0456C79.554 36.5843 79.34 37.1009 78.9591 37.4818C78.5782 37.8627 78.0616 38.0767 77.523 38.0767C76.9843 38.0767 76.4677 37.8627 76.0868 37.4818C75.7059 37.1009 75.4919 36.5843 75.4919 36.0456ZM32.9248 38.8435C33.8593 38.4135 34.2822 37.3328 33.8665 36.3968L32.9678 34.3428H36.5124V50.3173H29.363C28.4803 47.2173 28.2053 43.9758 28.5531 40.7713L32.9248 38.8435ZM47.7498 39.2362V34.5148H56.1878C56.6235 34.5148 59.2652 35.0194 59.2652 36.9945C59.2652 38.6342 57.2384 39.2233 55.5729 39.2233L47.7498 39.2362ZM36.2258 64.5876C36.2258 64.3209 36.2783 64.0568 36.3804 63.8103C36.4825 63.5639 36.6321 63.34 36.8207 63.1514C37.0093 62.9628 37.2332 62.8132 37.4796 62.7112C37.726 62.6091 37.9901 62.5566 38.2568 62.5566C38.5235 62.5566 38.7876 62.6091 39.0341 62.7112C39.2805 62.8132 39.5044 62.9628 39.693 63.1514C39.8816 63.34 40.0312 63.5639 40.1332 63.8103C40.2353 64.0568 40.2878 64.3209 40.2878 64.5876C40.2878 65.1263 40.0739 65.6429 39.693 66.0238C39.3121 66.4046 38.7955 66.6186 38.2568 66.6186C37.7181 66.6186 37.2015 66.4046 36.8207 66.0238C36.4398 65.6429 36.2258 65.1263 36.2258 64.5876ZM66.32 64.6822C66.32 64.1435 66.534 63.6269 66.9149 63.246C67.2958 62.8651 67.8124 62.6512 68.3511 62.6512C68.8897 62.6512 69.4063 62.8651 69.7872 63.246C70.1681 63.6269 70.3821 64.1435 70.3821 64.6822C70.3821 65.2209 70.1681 65.7375 69.7872 66.1184C69.4063 66.4992 68.8897 66.7132 68.3511 66.7132C67.8124 66.7132 67.2958 66.4992 66.9149 66.1184C66.534 65.7375 66.32 65.2209 66.32 64.6822ZM66.9478 60.0769C66.7099 60.0256 66.4641 60.0218 66.2247 60.0656C65.9853 60.1095 65.7569 60.2003 65.5526 60.3326C65.3483 60.465 65.1722 60.6364 65.0343 60.837C64.8964 61.0376 64.7995 61.2635 64.7491 61.5016L63.7458 66.2603C60.4674 67.7453 56.907 68.505 53.308 68.4877C49.709 68.4704 46.1562 67.6764 42.8922 66.16L41.8889 61.4013C41.8383 61.1633 41.7413 60.9376 41.6034 60.7371C41.4654 60.5367 41.2892 60.3654 41.085 60.2332C40.8807 60.101 40.6524 60.0104 40.413 59.9666C40.1736 59.9228 39.928 59.9267 39.6901 59.978L35.4905 60.881C34.7101 60.0773 33.9847 59.222 33.319 58.3211H53.7554C53.9848 58.3211 54.1424 58.2781 54.1424 58.0688V50.8405C54.1424 50.6298 53.9876 50.5882 53.7554 50.5882H47.7784V46.0059H54.2284C54.819 46.0059 57.3818 46.175 58.2031 49.453L59.4099 54.7922C59.7941 55.9704 61.3593 58.3225 63.0262 58.3225H73.5784C72.8707 59.2696 72.0967 60.1653 71.2622 61.0028L66.9478 60.0769ZM78.2955 40.9892C78.4391 42.4321 78.4568 43.8848 78.3486 45.3308H75.7686C75.5106 45.3308 75.4102 45.4999 75.4102 45.7507V46.9289C75.4102 49.7024 73.8336 50.3059 72.4762 50.4592C71.1862 50.6069 69.7242 49.9146 69.5465 49.1148C68.7768 44.7861 67.4939 43.8602 65.4686 42.2634C67.9827 40.6667 70.6 38.3117 70.6 35.1598C70.6 31.7557 68.2665 29.6128 66.6755 28.5608C64.4438 27.0902 61.9742 26.7949 61.3062 26.7949H34.7853C38.4534 22.6956 43.3709 19.9202 48.776 18.8987L51.9036 22.1953C52.0713 22.3714 52.2722 22.5126 52.4946 22.611C52.717 22.7093 52.9566 22.7628 53.1997 22.7684C53.4428 22.774 53.6847 22.7316 53.9114 22.6435C54.1381 22.5555 54.3452 22.4237 54.5208 22.2555L58.021 18.9087C61.5884 19.5767 64.9677 21.0133 67.924 23.1187C70.8803 25.2241 73.3429 27.9478 75.1408 31.1006L72.7471 36.5115C72.3171 37.4474 72.7557 38.5439 73.6888 38.9582L78.2955 40.9892ZM84.2725 41.0752L84.1908 40.2381L86.659 37.9362C86.7718 37.8165 86.8543 37.6717 86.8997 37.5137C86.9451 37.3557 86.9521 37.1891 86.9202 37.0279C86.8882 36.8666 86.8182 36.7153 86.7159 36.5866C86.6136 36.4579 86.4821 36.3555 86.3322 36.2879L83.1789 35.1082L82.9324 34.2941L84.9003 31.5607C84.9877 31.4212 85.0405 31.2629 85.0542 31.0989C85.0679 30.9349 85.0422 30.77 84.9792 30.6179C84.9163 30.4658 84.8178 30.331 84.6921 30.2248C84.5665 30.1185 84.4172 30.0438 84.2568 30.007L80.9314 29.4652L80.5301 28.7199L81.9276 25.6525C82.2143 25.0276 81.6839 24.2292 80.9959 24.255L77.6204 24.3726L77.0872 23.7276L77.8612 20.4395C77.8886 20.2772 77.8769 20.1108 77.8269 19.954C77.7769 19.7973 77.6901 19.6547 77.5738 19.5383C77.4576 19.4219 77.3151 19.335 77.1584 19.2848C77.0017 19.2346 76.8353 19.2226 76.673 19.2498L73.3849 20.0238L72.7371 19.4906L72.856 16.1151C72.8512 15.9507 72.8071 15.7898 72.7275 15.6459C72.6478 15.5019 72.5349 15.3791 72.3982 15.2877C72.2614 15.1962 72.1048 15.1388 71.9413 15.1202C71.7779 15.1015 71.6124 15.1223 71.4585 15.1806L68.3912 16.5795L67.6459 16.1782L67.1041 12.8529C67.0672 12.6927 66.9925 12.5436 66.8863 12.4181C66.7802 12.2926 66.6455 12.1943 66.4937 12.1313C66.3418 12.0683 66.1771 12.0426 66.0133 12.0561C65.8494 12.0697 65.6912 12.1222 65.5518 12.2093L62.8284 14.1615L62.0157 13.915L60.8361 10.7616C60.7687 10.6117 60.6663 10.48 60.5377 10.3776C60.409 10.2752 60.2578 10.205 60.0965 10.1729C59.9352 10.1408 59.7686 10.1477 59.6106 10.193C59.4525 10.2383 59.3075 10.3207 59.1878 10.4334L56.8701 12.9002L56.033 12.8185L54.2557 9.94606C54.1602 9.81233 54.0342 9.70332 53.8881 9.62811C53.742 9.55291 53.5801 9.51367 53.4157 9.51367C53.2514 9.51367 53.0895 9.55291 52.9434 9.62811C52.7973 9.70332 52.6713 9.81233 52.5758 9.94606L50.7985 12.8185L49.9614 12.9002L47.6595 10.4305C47.5397 10.3178 47.3948 10.2354 47.2367 10.1901C47.0786 10.1448 46.912 10.1379 46.7508 10.17C46.5895 10.2021 46.4382 10.2723 46.3096 10.3747C46.1809 10.4771 46.0786 10.6088 46.0111 10.7588L44.8315 13.9121L44.0174 14.1586L41.294 12.195C41.1546 12.1076 40.9962 12.0548 40.8322 12.0411C40.6682 12.0274 40.5033 12.0531 40.3512 12.1161C40.1991 12.179 40.0644 12.2775 39.9581 12.4032C39.8518 12.5288 39.7771 12.6781 39.7403 12.8385L39.1985 16.1639L38.4532 16.5652L35.3858 15.1663C35.232 15.1079 35.0665 15.0872 34.9031 15.1058C34.7396 15.1245 34.583 15.1819 34.4462 15.2733C34.3095 15.3648 34.1966 15.4876 34.1169 15.6315C34.0373 15.7755 33.9932 15.9364 33.9883 16.1008L34.1059 19.4763L33.458 20.0095L30.1699 19.2355C30.0076 19.208 29.841 19.2198 29.6841 19.2699C29.5272 19.32 29.3845 19.4068 29.2681 19.5233C29.1516 19.6398 29.0647 19.7824 29.0147 19.9393C28.9646 20.0962 28.9528 20.2628 28.9803 20.4252L29.7543 23.7132L29.2239 24.3582L25.8484 24.2407C25.1676 24.2206 24.6301 25.0147 24.9139 25.6382L26.3128 28.7055L25.9115 29.4509L22.5862 29.9927C21.9125 30.103 21.5441 30.9903 21.9412 31.5464L23.9091 34.2798L23.6626 35.0939L20.5093 36.2735C20.3594 36.3411 20.2279 36.4436 20.1256 36.5723C20.0234 36.701 19.9533 36.8523 19.9214 37.0135C19.8894 37.1748 19.8964 37.3413 19.9418 37.4993C19.9872 37.6573 20.0698 37.8022 20.1825 37.9219L22.6507 40.2238L22.569 41.0609L19.698 42.8382C19.5643 42.9337 19.4553 43.0597 19.3801 43.2058C19.3049 43.3519 19.2656 43.5138 19.2656 43.6781C19.2656 43.8424 19.3049 44.0044 19.3801 44.1505C19.4553 44.2966 19.5643 44.4226 19.698 44.5181L22.569 46.2954L22.6507 47.1325L20.1825 49.4344C20.0698 49.5541 19.9872 49.6989 19.9418 49.8569C19.8964 50.0149 19.8894 50.1815 19.9214 50.3427C19.9533 50.504 20.0234 50.6553 20.1256 50.784C20.2279 50.9127 20.3594 51.0151 20.5093 51.0827L23.6626 52.2624L23.9091 53.0765L21.9412 55.8099C21.8541 55.9493 21.8016 56.1075 21.788 56.2714C21.7745 56.4352 21.8002 56.5999 21.8632 56.7518C21.9261 56.9036 22.0245 57.0382 22.15 57.1444C22.2755 57.2506 22.4245 57.3252 22.5847 57.3622L25.9101 57.904L26.3114 58.6522L24.9125 61.7195C24.8541 61.8733 24.8334 62.0388 24.8521 62.2023C24.8707 62.3657 24.9281 62.5224 25.0196 62.6591C25.111 62.7959 25.2338 62.9088 25.3777 62.9884C25.5217 63.0681 25.6826 63.1121 25.847 63.117L29.2211 62.998L29.7543 63.6459L28.9803 66.9354C28.9533 67.0976 28.9655 67.2638 29.0158 67.4203C29.0661 67.5768 29.1531 67.7191 29.2695 67.8352C29.3858 67.9513 29.5283 68.0379 29.6849 68.0878C29.8415 68.1378 30.0078 68.1495 30.1699 68.1222L33.458 67.3482L34.1059 67.8785L33.9883 71.2555C33.9934 71.4198 34.0377 71.5805 34.1174 71.7242C34.1971 71.868 34.3101 71.9906 34.4468 72.0819C34.5835 72.1732 34.7401 72.2305 34.9034 72.2491C35.0667 72.2676 35.2321 72.2469 35.3858 72.1886L38.4532 70.7911L39.1985 71.1924L39.7403 74.5177C39.777 74.6783 39.8515 74.8277 39.9577 74.9535C40.0639 75.0794 40.1987 75.178 40.3507 75.2411C40.5028 75.3043 40.6678 75.3301 40.8319 75.3165C40.996 75.3028 41.1545 75.2501 41.294 75.1627L44.0274 73.1933L44.8415 73.4413L46.0212 76.5946C46.0888 76.7445 46.1912 76.876 46.3199 76.9783C46.4486 77.0805 46.5999 77.1506 46.7612 77.1825C46.9224 77.2145 47.089 77.2075 47.247 77.1621C47.405 77.1167 47.5498 77.0341 47.6695 76.9214L49.9714 74.4532L50.8085 74.5364L52.5858 77.4073C52.9442 77.9864 53.9045 77.9878 54.2657 77.4073L56.0445 74.5335L56.8815 74.4504L59.1835 76.9186C59.3031 77.0313 59.448 77.1138 59.606 77.1592C59.764 77.2046 59.9305 77.2116 60.0918 77.1797C60.2531 77.1477 60.4043 77.0777 60.5331 76.9754C60.6618 76.8731 60.7642 76.7416 60.8318 76.5918L62.0114 73.4384L62.8256 73.1905L65.5589 75.1599C65.6985 75.2469 65.8568 75.2994 66.0207 75.3129C66.1846 75.3264 66.3494 75.3005 66.5013 75.2374C66.6532 75.1743 66.7878 75.0758 66.8939 74.9501C67 74.8244 67.0745 74.6752 67.1112 74.5149L67.653 71.1895L68.3984 70.7882L71.4657 72.1857C71.6194 72.244 71.7848 72.2647 71.9482 72.2462C72.1115 72.2276 72.268 72.1703 72.4048 72.079C72.5415 71.9878 72.6544 71.8651 72.7341 71.7214C72.8139 71.5776 72.8581 71.4169 72.8632 71.2526L72.7457 67.8757L73.3935 67.3453L76.6816 68.1193C76.8436 68.1464 77.0097 68.1344 77.1662 68.0844C77.3226 68.0343 77.4648 67.9477 77.5811 67.8316C77.6973 67.7156 77.7841 67.5734 77.8343 67.4171C77.8846 67.2607 77.8967 67.0946 77.8698 66.9325L77.0958 63.643L77.6262 62.9952L81.0017 63.1141C81.166 63.1091 81.3267 63.0648 81.4705 62.9851C81.6142 62.9053 81.7368 62.7924 81.8281 62.6557C81.9194 62.519 81.9767 62.3624 81.9953 62.1991C82.0138 62.0357 81.9931 61.8703 81.9348 61.7166L80.5373 58.6493L80.9386 57.9011L84.2639 57.3593C84.4241 57.3224 84.5732 57.2477 84.6987 57.1416C84.8242 57.0354 84.9225 56.9008 84.9855 56.7489C85.0485 56.597 85.0742 56.4323 85.0607 56.2685C85.0471 56.1047 84.9946 55.9464 84.9075 55.807L82.9395 53.0736L83.1861 52.2595L86.3394 51.0799C86.4893 51.0123 86.6208 50.9098 86.7231 50.7811C86.8253 50.6524 86.8953 50.5011 86.9273 50.3399C86.9593 50.1786 86.9523 50.012 86.9069 49.854C86.8614 49.696 86.7789 49.5512 86.6662 49.4315L84.198 47.1296L84.2797 46.2925L87.1507 44.5152C87.2844 44.4197 87.3934 44.2937 87.4686 44.1476C87.5438 44.0015 87.5831 43.8396 87.5831 43.6753C87.5831 43.5109 87.5438 43.349 87.4686 43.2029C87.3934 43.0568 87.2844 42.9308 87.1507 42.8353L84.2725 41.0752ZM91.5711 46.6222V34.6682H97.8777V36.6261C97.8777 37.6772 97.872 39.0112 97.8605 40.628C97.8491 42.2238 97.8433 43.2892 97.8433 43.8243C97.8433 45.3972 97.884 46.5333 97.9652 47.2328C98.0464 47.9208 98.1864 48.4225 98.3851 48.7378C98.6412 49.1458 98.9733 49.4602 99.3813 49.6809C99.8018 49.9026 100.28 50.0135 100.815 50.0135C102.12 50.0135 103.145 49.5118 103.891 48.5085C104.636 47.5051 105.009 46.1129 105.009 44.3317V34.6668H111.265V54.2418H104.993V51.411C104.049 52.5528 103.047 53.3976 101.987 53.9451C100.939 54.4802 99.7793 54.7478 98.5084 54.7478C96.2476 54.7478 94.5276 54.055 93.3484 52.6694C92.1712 51.2839 91.5825 49.2677 91.5825 46.6208L91.5711 46.6222ZM132.59 35.2788V40.0332C131.251 39.4742 129.957 39.0547 128.71 38.7747C127.463 38.4947 126.286 38.3547 125.18 38.3547C123.991 38.3547 123.106 38.5062 122.524 38.8091C121.953 39.1005 121.668 39.5544 121.668 40.1708C121.668 40.6715 121.883 41.0561 122.313 41.3246C122.756 41.5921 123.542 41.7904 124.672 41.9194L125.773 42.0628C128.977 42.4708 131.133 43.1406 132.24 44.0723C133.347 45.004 133.9 46.466 133.9 48.4583C133.9 50.5443 133.136 52.1114 131.607 53.1596C130.078 54.2079 127.783 54.732 124.721 54.732C123.427 54.732 122.087 54.6269 120.701 54.4167C119.325 54.2189 117.909 53.916 116.454 53.5079V48.7536C117.701 49.3594 118.976 49.8133 120.281 50.1152C121.597 50.4181 122.931 50.5696 124.283 50.5696C125.506 50.5696 126.426 50.4005 127.045 50.0622C127.662 49.7239 127.971 49.2223 127.971 48.5572C127.971 47.9982 127.756 47.5844 127.326 47.3159C126.905 47.0359 126.06 46.8209 124.791 46.6709L123.691 46.5305C120.906 46.1807 118.954 45.5338 117.835 44.5897C116.717 43.6456 116.158 42.2123 116.158 40.2897C116.158 38.2162 116.869 36.6777 118.291 35.6744C119.713 34.6711 121.892 34.1694 124.827 34.1694C125.981 34.1694 127.192 34.2568 128.462 34.4317C129.733 34.6066 131.119 34.8803 132.619 35.253L132.59 35.2788ZM145.456 29.1083V34.6668H151.906V39.1416H145.456V47.4435C145.456 48.3513 145.636 48.969 145.998 49.2968C146.359 49.6121 147.075 49.7698 148.148 49.7698H151.364V54.2447H145.999C143.529 54.2447 141.775 53.732 140.739 52.7067C139.713 51.6699 139.201 49.9165 139.201 47.4464V39.1302H136.09V34.6553H139.201V29.0968H145.457L145.456 29.1083Z" fill="#969696" fill-opacity="0.8"/>
</svg>
