<svg width="96" height="64" viewBox="0 0 96 64" fill="none" xmlns="http://www.w3.org/2000/svg">
<rect opacity="0.05" width="96" height="64" rx="8" fill="#E0E0E0"/>
<g clip-path="url(#clip0_247_3527)">
<path d="M58.8932 24.6549C57.7777 24.2128 56.5985 23.9909 55.4113 23.9998C51.5719 23.9998 48.8603 26.1035 48.8411 29.1233C48.8171 31.3419 50.768 32.5921 52.2438 33.3334C53.7579 34.0955 54.2643 34.5758 54.2595 35.257C54.2499 36.2932 53.05 36.763 51.9342 36.763C50.4008 36.763 49.5634 36.5307 48.2748 35.9487L47.7972 35.7059L47.2525 39.1826C48.186 39.6054 49.8681 39.9682 51.6055 39.9995C55.6872 39.9995 58.3556 37.9088 58.3868 34.6958C58.4204 32.9236 57.3646 31.5846 55.1425 30.478C53.7915 29.7602 52.9541 29.2799 52.9541 28.5517C52.9541 27.907 53.6715 27.218 55.1713 27.218C56.1695 27.1917 57.1614 27.3954 58.0821 27.8157L58.442 27.9906L58.9868 24.6314L58.8932 24.6549ZM68.8565 24.2817H65.8569C64.9235 24.2817 64.2204 24.5609 63.8124 25.5684L58.0437 39.7829H62.1255L62.9414 37.4521L67.923 37.4573C68.0406 38.0028 68.4005 39.7829 68.4005 39.7829H72L68.8565 24.2817ZM43.3195 24.1511H47.2093L44.7761 39.6602H40.8911L43.3195 24.1459V24.1511ZM33.445 32.6991L33.8481 34.8524L37.6492 24.2817H41.7693L35.6479 39.762H31.5373L28.1778 26.6542C28.1234 26.4381 27.9956 26.2524 27.8202 26.1348C26.6094 25.4545 25.3264 24.9382 24 24.5975L24.0528 24.2712H30.3135C31.1629 24.3078 31.8468 24.5975 32.0748 25.5841L33.4426 32.707V32.6991H33.445ZM64.0572 34.2808L65.6074 29.9429C65.5882 29.9899 65.9265 29.0476 66.1233 28.4656L66.3896 29.8046L67.2895 34.2782H64.0548V34.2808H64.0572Z" fill="#E0E0E0"/>
</g>
<defs>
<clipPath id="clip0_247_3527">
<rect width="48" height="48" fill="white" transform="translate(24 8)"/>
</clipPath>
</defs>
</svg>
