<svg width="256" height="256" viewBox="0 0 256 256" fill="none" xmlns="http://www.w3.org/2000/svg">
<rect width="256" height="256" rx="128" fill="white"/>
<path d="M53.2 160.733C56.2222 158.333 57.6 157.222 57.3333 157.4C66.0444 150.2 72.8889 144.289 77.8667 139.667C82.9333 135.044 87.2 130.2 90.6667 125.133C94.1333 120.067 95.8667 115.133 95.8667 110.333C95.8667 106.689 95.0222 103.844 93.3333 101.8C91.6444 99.7556 89.1111 98.7333 85.7333 98.7333C82.3556 98.7333 79.6889 100.022 77.7333 102.6C75.8667 105.089 74.9333 108.644 74.9333 113.267H52.9333C53.1111 105.711 54.7111 99.4 57.7333 94.3333C60.8444 89.2667 64.8889 85.5333 69.8667 83.1333C74.9333 80.7333 80.5333 79.5333 86.6667 79.5333C97.2444 79.5333 105.2 82.2444 110.533 87.6667C115.956 93.0889 118.667 100.156 118.667 108.867C118.667 118.378 115.422 127.222 108.933 135.4C102.444 143.489 94.1778 151.4 84.1333 159.133H120.133V177.667H53.2V160.733ZM130.972 109.133C131.327 99.6222 134.439 92.2889 140.305 87.1333C146.172 81.9778 154.127 79.4 164.172 79.4C170.839 79.4 176.527 80.5556 181.239 82.8667C186.039 85.1778 189.639 88.3333 192.039 92.3333C194.527 96.3333 195.772 100.822 195.772 105.8C195.772 111.667 194.305 116.467 191.372 120.2C188.439 123.844 185.016 126.333 181.105 127.667V128.2C186.172 129.889 190.172 132.689 193.105 136.6C196.039 140.511 197.505 145.533 197.505 151.667C197.505 157.178 196.216 162.067 193.639 166.333C191.15 170.511 187.461 173.8 182.572 176.2C177.772 178.6 172.039 179.8 165.372 179.8C154.705 179.8 146.172 177.178 139.772 171.933C133.461 166.689 130.127 158.778 129.772 148.2H151.905C151.994 152.111 153.105 155.222 155.239 157.533C157.372 159.756 160.483 160.867 164.572 160.867C168.039 160.867 170.705 159.889 172.572 157.933C174.527 155.889 175.505 153.222 175.505 149.933C175.505 145.667 174.127 142.6 171.372 140.733C168.705 138.778 164.394 137.8 158.439 137.8H154.172V119.267H158.439C162.972 119.267 166.616 118.511 169.372 117C172.216 115.4 173.639 112.6 173.639 108.6C173.639 105.4 172.75 102.911 170.972 101.133C169.194 99.3556 166.75 98.4667 163.639 98.4667C160.261 98.4667 157.727 99.4889 156.039 101.533C154.439 103.578 153.505 106.111 153.239 109.133H130.972Z" fill="black"/>
</svg>
