<svg width="24" height="24" viewBox="0 0 24 24" fill="none" xmlns="http://www.w3.org/2000/svg">
<path d="M23.001 9.70998C23.0505 8.27864 22.7374 6.858 22.091 5.57998C21.6524 5.05558 21.0437 4.70169 20.371 4.57998C17.5885 4.32751 14.7945 4.22403 12.001 4.26998C9.21765 4.22194 6.43371 4.32208 3.661 4.56998C3.11282 4.6697 2.60552 4.92683 2.201 5.30998C1.301 6.13998 1.201 7.55998 1.101 8.75998C0.955916 10.9175 0.955916 13.0824 1.101 15.24C1.12993 15.9154 1.2305 16.5858 1.401 17.24C1.52158 17.745 1.76553 18.2123 2.111 18.6C2.51827 19.0034 3.03739 19.2752 3.601 19.38C5.75692 19.6461 7.92922 19.7564 10.101 19.71C13.601 19.76 16.671 19.71 20.301 19.43C20.8785 19.3316 21.4122 19.0595 21.831 18.65C22.111 18.3699 22.3201 18.0271 22.441 17.65C22.7986 16.5526 22.9743 15.4041 22.961 14.25C23.001 13.69 23.001 10.31 23.001 9.70998ZM9.741 14.85V8.65998L15.661 11.77C14.001 12.69 11.811 13.73 9.741 14.85Z" fill="white"/>
</svg>
